<svg xmlns="http://www.w3.org/2000/svg" viewBox="97.407 -1187.801 151.76 72.394">
  <defs>
    <style>
      .cls-1 {
        fill: none;
        stroke: #f9f9f9;
        stroke-width: 5px;
      }
    </style>
  </defs>
  <g id="Symbol_3_9" data-name="Symbol 3 – 9" transform="translate(1.859 -1338.1)">
    <path id="Path_3" data-name="Path 3" class="cls-1" d="M.725.725,46.109,0l-.725,45.384L0,46.109Z" transform="translate(131.744 153.893) rotate(45)"/>
    <path id="Path_4" data-name="Path 4" class="cls-1" d="M.725.725,46.109,0l-.725,45.384L0,46.109Z" transform="translate(171.427 153.893) rotate(45)"/>
    <path id="Path_5" data-name="Path 5" class="cls-1" d="M.725.725,46.109,0l-.725,45.384L0,46.109Z" transform="translate(211.111 153.893) rotate(45)"/>
    <path id="Path_6" data-name="Path 6" class="cls-1" d="M.725.725,46.109,0l-.725,45.384L0,46.109Z" transform="translate(131.744 153.893) rotate(45)"/>
    <path id="Path_7" data-name="Path 7" class="cls-1" d="M.725.725,46.109,0l-.725,45.384L0,46.109Z" transform="translate(171.427 153.893) rotate(45)"/>
    <path id="Path_8" data-name="Path 8" class="cls-1" d="M.725.725,46.109,0l-.725,45.384L0,46.109Z" transform="translate(211.111 153.893) rotate(45)"/>
  </g>
</svg>
